<svg xmlns="http://www.w3.org/2000/svg" viewBox="0 0 128 128"><rect width="128" height="128" rx="28" fill="#fff"/><path d="M0 0h128v128H0z" fill="#f7f7f7"/><path d="M0 91 47 52l34 24 47-41v38L83 112 48 88 0 128Z" fill="#4caf68"/><path d="M0 0 48 38l33-24 47 34V0Z" fill="#f7d64a"/><path d="M48 0v128" stroke="#fff" stroke-width="8" opacity=".8"/><path d="M82 0v128" stroke="#fff" stroke-width="8" opacity=".8"/><path d="M64 22c-18 0-32 14-32 32 0 24 32 58 32 58s32-34 32-58c0-18-14-32-32-32Z" fill="#ea4335"/><circle cx="64" cy="54" r="12" fill="#4285f4"/></svg>